<?xml version="1.0" standalone="no"?>
<!DOCTYPE svg PUBLIC "-//W3C//DTD SVG 20010904//EN"
 "http://www.w3.org/TR/2001/REC-SVG-20010904/DTD/svg10.dtd">
<svg version="1.0" xmlns="http://www.w3.org/2000/svg"
 width="256.000000pt" height="256.000000pt" viewBox="0 0 256.000000 256.000000"
 preserveAspectRatio="xMidYMid meet">

<g transform="translate(0.000000,256.000000) scale(0.100000,-0.100000)"
fill="#000000" stroke="none">
<path d="M1173 2461 c-63 -21 -115 -60 -154 -114 -45 -63 -59 -124 -59 -267 0
-106 -3 -132 -20 -165 -36 -70 -20 -148 39 -198 17 -14 47 -29 66 -33 33 -6
35 -8 35 -49 0 -91 57 -204 126 -248 32 -21 34 -25 34 -78 0 -54 -2 -59 -47
-104 l-48 -48 -205 -44 c-113 -24 -222 -53 -244 -64 -38 -20 -39 -20 -60 0
-11 11 -33 23 -48 26 l-28 7 0 218 0 218 94 4 c81 3 99 8 134 30 61 41 87 90
87 168 0 78 -26 127 -88 168 l-41 27 -265 0 c-263 0 -266 0 -304 -24 -21 -13
-50 -42 -65 -64 -37 -56 -39 -153 -3 -210 33 -54 88 -87 155 -94 l56 -6 0
-218 0 -217 -29 -7 c-15 -3 -41 -20 -57 -36 l-29 -30 -3 -451 c-2 -329 1 -454
9 -464 10 -12 189 -14 1140 -14 621 0 1129 3 1129 8 0 4 -16 181 -34 394 -37
418 -41 438 -105 510 -48 55 -96 73 -321 121 l-205 44 -47 48 c-46 45 -48 50
-48 104 0 53 2 57 34 78 67 43 126 159 126 246 0 42 1 43 44 55 114 30 152
171 70 261 l-34 38 0 144 c0 124 -3 148 -21 186 -28 58 -87 93 -156 93 -35 0
-55 5 -64 17 -8 9 -32 24 -54 34 -59 27 -415 27 -492 0z m575 -391 l53 -125
-3 -185 c-3 -203 -11 -232 -75 -291 -61 -58 -86 -64 -243 -64 -159 0 -194 10
-251 72 -61 65 -64 80 -64 298 0 161 4 209 17 245 9 25 23 65 30 90 9 31 23
51 47 67 34 23 40 23 235 21 l200 -3 54 -125z m-668 -230 c0 -44 -2 -80 -5
-80 -20 0 -56 28 -66 51 -18 46 15 104 64 108 4 1 7 -35 7 -79z m834 69 c35
-16 52 -61 37 -98 -10 -23 -46 -51 -66 -51 -3 0 -5 36 -5 80 0 44 2 80 5 80 2
0 15 -5 29 -11z m-274 -639 l0 -56 -79 -26 -79 -26 -79 28 -78 28 -3 53 -3 54
161 0 160 0 0 -55z m-314 -140 c32 -11 65 -22 73 -25 9 -4 3 -18 -25 -53 -21
-26 -39 -49 -41 -51 -3 -4 -65 64 -91 101 -11 15 -11 22 -2 33 16 19 15 19 86
-5z m394 5 c9 -11 9 -18 -2 -33 -26 -37 -88 -105 -91 -101 -2 2 -20 25 -41 51
-28 35 -34 49 -25 53 60 22 126 44 135 44 6 1 17 -6 24 -14z m-1132 -147 c17
-17 17 -279 0 -296 -17 -17 -279 -17 -296 0 -17 17 -17 279 0 296 17 17 279
17 296 0z m-68 -428 l0 -40 -120 0 -120 0 0 40 0 40 120 0 120 0 0 -40z"/>
<path d="M1257 1982 c-22 -24 -21 -65 1 -85 40 -36 102 -9 102 45 0 51 -69 78
-103 40z"/>
<path d="M1617 1982 c-36 -40 -9 -102 45 -102 51 0 78 69 40 103 -24 22 -65
21 -85 -1z"/>
<path d="M1525 1689 c-22 -4 -68 -8 -102 -8 l-63 -1 0 -40 0 -40 75 0 c78 0
175 16 175 29 0 5 -5 22 -11 40 -12 33 -12 33 -74 20z"/>
</g>
</svg>
